<svg xmlns="http://www.w3.org/2000/svg" width="175.415" height="44.172" viewBox="0 0 175.415 44.172">
  <g id="グループ_523" data-name="グループ 523" transform="translate(-1000.989 762.924)">
    <path id="パス_1" data-name="パス 1" d="M1001.653-725.3l8.457,6.265a1.319,1.319,0,0,0,.8.276,2.105,2.105,0,0,0,.6-.138,1.253,1.253,0,0,0,.739-1.253v-9.623l5.526-2.731a1.252,1.252,0,0,0,.752-1.19v-27.791a1.327,1.327,0,0,0-1.35-1.305,1.324,1.324,0,0,0-.642.178s-14.484,7.066-14.823,7.242a1.392,1.392,0,0,0-.727,1.253v27.754A3.192,3.192,0,0,0,1001.653-725.3Zm14.259-9.259-3.646,1.742v-15.036a1.377,1.377,0,0,0-.539-1.065L1005-753.927l10.864-5.387Z" transform="translate(0 -0.033)" fill="#f39800"/>
    <path id="パス_2" data-name="パス 2" d="M1045.365-726.47v-27.779a1.38,1.38,0,0,0-.74-1.253c-.339-.075-14.785-7.28-14.785-7.28a1.354,1.354,0,0,0-1.341.075,1.366,1.366,0,0,0-.664,1.128v27.854a1.253,1.253,0,0,0,.739,1.19l5.526,2.731v9.661a1.255,1.255,0,0,0,.727,1.253,2.1,2.1,0,0,0,.6.137,1.252,1.252,0,0,0,.84-.313l8.457-6.265A1.254,1.254,0,0,0,1045.365-726.47Zm-14.8-32.9,10.863,5.388-6.728,5.012a1.379,1.379,0,0,0-.538,1.065v15.061l-3.6-1.792Z" transform="translate(-6.461)" fill="#2ea7e0"/>
    <path id="パス_3" data-name="パス 3" d="M1088.334-731.2a1.079,1.079,0,0,1-1.039,1.115h-.077a1.142,1.142,0,0,1-1.065-.7l-1.579-3.847h-8.407l-1.616,3.847a1.142,1.142,0,0,1-1.065.7,1.077,1.077,0,0,1-1.115-1.039.67.67,0,0,1,0-.077,1.324,1.324,0,0,1,.125-.5l6.265-14.885a1.553,1.553,0,0,1,1.441-1h.238a1.555,1.555,0,0,1,1.441,1l6.264,14.885A1.355,1.355,0,0,1,1088.334-731.2Zm-4.624-5.476-3.346-8.044-3.308,8.044Z" transform="translate(-17.179 -3.691)" fill="#2ea7e0"/>
    <path id="パス_4" data-name="パス 4" d="M1099.05-730.412v6.265a1.127,1.127,0,0,1-1,1.24,1.128,1.128,0,0,1-1.24-1,1.137,1.137,0,0,1,0-.238v-16.288a1.128,1.128,0,0,1,1.24-1,1.128,1.128,0,0,1,1,1v.651a5.638,5.638,0,0,1,4.235-1.879,6.115,6.115,0,0,1,5.98,6.245c0,.111-.008.222-.017.333a6.113,6.113,0,0,1-5.659,6.538c-.105.008-.212.013-.317.015A5.691,5.691,0,0,1,1099.05-730.412Zm0-7.28v5.2a5.273,5.273,0,0,0,3.934,1.855c2.356,0,4.059-1.542,4.059-4.448s-1.729-4.46-4.059-4.46A5.322,5.322,0,0,0,1099.05-737.692Z" transform="translate(-23.059 -5.116)" fill="#2ea7e0"/>
    <path id="パス_5" data-name="パス 5" d="M1119.593-730.412v6.265a1.127,1.127,0,0,1-1,1.24,1.127,1.127,0,0,1-1.24-1,1.137,1.137,0,0,1,0-.238v-16.288a1.127,1.127,0,0,1,1.24-1,1.127,1.127,0,0,1,1,1v.651a5.628,5.628,0,0,1,4.236-1.879,6.115,6.115,0,0,1,5.991,6.235c0,.106-.008.213-.015.318a6.127,6.127,0,0,1-5.685,6.539q-.146.01-.292.014A5.666,5.666,0,0,1,1119.593-730.412Zm0-7.28v5.2a5.277,5.277,0,0,0,3.91,1.855c2.343,0,4.059-1.541,4.059-4.448s-1.717-4.46-4.059-4.46A5.323,5.323,0,0,0,1119.593-737.692Z" transform="translate(-28.003 -5.116)" fill="#2ea7e0"/>
    <path id="パス_6" data-name="パス 6" d="M1140.4-747.5v16.05a1.128,1.128,0,0,1-1.128,1.128,1.127,1.127,0,0,1-1.128-1.128V-747.5a1.127,1.127,0,0,1,1.128-1.128A1.127,1.127,0,0,1,1140.4-747.5Z" transform="translate(-33.009 -3.441)" fill="#2ea7e0"/>
    <path id="パス_7" data-name="パス 7" d="M1156.643-739.9l-6.754,16.213a1.1,1.1,0,0,1-1.04.765,1.078,1.078,0,0,1-1.065-1.078,1.132,1.132,0,0,1,.075-.4l1.616-4.122-4.649-11.277a1.367,1.367,0,0,1-.1-.476,1.115,1.115,0,0,1,1.11-1.12,1.114,1.114,0,0,1,1.033.681l3.759,9.448,3.885-9.4a1.1,1.1,0,0,1,1.04-.739,1.128,1.128,0,0,1,1.115,1.128A1.182,1.182,0,0,1,1156.643-739.9Z" transform="translate(-34.593 -5.18)" fill="#2ea7e0"/>
    <path id="パス_8" data-name="パス 8" d="M1179.507-746.46v14.8a1.629,1.629,0,0,1-1.629,1.616h-.3a1.655,1.655,0,0,1-1.316-.677l-9.56-13.783V-731.2a1.14,1.14,0,0,1-1.141,1.115,1.115,1.115,0,0,1-1.115-1.115v-14.76a1.616,1.616,0,0,1,1.6-1.629h.326a1.729,1.729,0,0,1,1.366.74l9.51,13.783V-746.46a1.127,1.127,0,0,1,1.115-1.128A1.153,1.153,0,0,1,1179.507-746.46Z" transform="translate(-39.339 -3.691)" fill="#2ea7e0"/>
    <path id="パス_9" data-name="パス 9" d="M1201.588-735.081a6.328,6.328,0,0,1-6.324,6.331,6.328,6.328,0,0,1-6.331-6.324v-.008c0-3.909,2.506-6.553,6.265-6.553a6.09,6.09,0,0,1,6.4,5.762A6.136,6.136,0,0,1,1201.588-735.081Zm-2.255,0a4.1,4.1,0,0,0-3.687-4.47,4.1,4.1,0,0,0-4.47,3.686,4.108,4.108,0,0,0,0,.784c0,3.283,2.18,4.523,4.084,4.523a4.106,4.106,0,0,0,4.146-4.066,4.08,4.08,0,0,0-.024-.482Z" transform="translate(-45.232 -5.122)" fill="#2ea7e0"/>
    <path id="パス_10" data-name="パス 10" d="M1226.234-740.382a1.256,1.256,0,0,1-.075.426l-3.508,10.287a1.566,1.566,0,0,1-1.441,1.04,1.617,1.617,0,0,1-1.453-1.065l-2.619-8.182-2.618,8.182a1.618,1.618,0,0,1-1.466,1.065,1.567,1.567,0,0,1-1.428-1.04l-3.508-10.287a1.253,1.253,0,0,1-.075-.426,1.1,1.1,0,0,1,1.1-1.1h.012a1,1,0,0,1,1,.664l2.894,9.523,2.87-9.3a1.253,1.253,0,0,1,1.52-.91,1.253,1.253,0,0,1,.91.91l2.87,9.3,2.894-9.523a1.028,1.028,0,0,1,1.015-.664,1.1,1.1,0,0,1,1.1,1.1Z" transform="translate(-49.831 -5.145)" fill="#2ea7e0"/>
  </g>
</svg>
