<svg id="AN_logo" xmlns="http://www.w3.org/2000/svg" width="141" height="35.254" viewBox="0 0 141 35.254">
  <path id="パス_1" data-name="パス 1" d="M.53,30l6.75,5a1.05,1.05,0,0,0,.64.22,1.67,1.67,0,0,0,.48-.11,1,1,0,0,0,.59-1V26.43l4.41-2.18a1,1,0,0,0,.6-.95V1.12a1.06,1.06,0,0,0-1.59-.9S.85,5.86.58,6A1.11,1.11,0,0,0,0,7V29.15A2.55,2.55,0,0,0,.53,30Zm11.38-7.39L9,24V12a1.1,1.1,0,0,0-.43-.85l-5.37-4,8.67-4.3Z" transform="translate(0 0.004)" fill="#fff"/>
  <path id="パス_2" data-name="パス 2" d="M30.26,29.09V6.92a1.1,1.1,0,0,0-.59-1C29.4,5.86,17.87.11,17.87.11A1.08,1.08,0,0,0,16.8.17a1.09,1.09,0,0,0-.53.9V23.3a1,1,0,0,0,.59.95l4.41,2.18v7.71a1,1,0,0,0,.58,1,1.67,1.67,0,0,0,.48.11A1,1,0,0,0,23,35l6.75-5a1,1,0,0,0,.51-.91ZM18.45,2.83l8.67,4.3-5.37,4a1.1,1.1,0,0,0-.43.85V24l-2.87-1.43Z" transform="translate(0 0.004)" fill="#fff"/>
  <path id="パス_3" data-name="パス 3" d="M56,22.37a.86.86,0,0,1-.89.89.91.91,0,0,1-.85-.56L53,19.63H46.29L45,22.7a.91.91,0,0,1-.85.56.86.86,0,0,1-.89-.89,1.07,1.07,0,0,1,.1-.4l5-11.88a1.24,1.24,0,0,1,1.15-.8h.19a1.24,1.24,0,0,1,1.15.8l5,11.88a1.07,1.07,0,0,1,.15.4ZM52.31,18l-2.67-6.42L47,18Z" transform="translate(0.34 0.004)" fill="#fff"/>
  <path id="パス_4" data-name="パス 4" d="M59.86,21.86v5a.9.9,0,1,1-1.79,0v-13a.9.9,0,0,1,1.79,0v.52a4.5,4.5,0,0,1,3.38-1.5A4.88,4.88,0,0,1,68,18.13a4.88,4.88,0,0,1-4.77,5.23,4.54,4.54,0,0,1-3.37-1.5Zm0-5.81V20.2A4.21,4.21,0,0,0,63,21.68c1.88,0,3.24-1.23,3.24-3.55S64.86,14.57,63,14.57a4.25,4.25,0,0,0-3.14,1.48Z" transform="translate(0.447 0.004)" fill="#fff"/>
  <path id="パス_5" data-name="パス 5" d="M72.31,21.86v5a.9.9,0,1,1-1.79,0v-13a.9.9,0,0,1,1.79,0v.52a4.49,4.49,0,0,1,3.38-1.5,4.88,4.88,0,0,1,4.77,5.23,4.89,4.89,0,0,1-4.77,5.23,4.52,4.52,0,0,1-3.38-1.48Zm0-5.81V20.2a4.21,4.21,0,0,0,3.12,1.48c1.87,0,3.24-1.23,3.24-3.55s-1.37-3.56-3.24-3.56a4.25,4.25,0,0,0-3.12,1.48Z" transform="translate(0.543 0.004)" fill="#fff"/>
  <path id="パス_6" data-name="パス 6" d="M84.92,9.56V22.37a.9.9,0,0,1-1.8,0V9.56a.9.9,0,1,1,1.8,0Z" transform="translate(0.602 0.004)" fill="#fff"/>
  <path id="パス_7" data-name="パス 7" d="M96.62,14.24,91.23,27.18a.88.88,0,0,1-.83.61.86.86,0,0,1-.85-.86.91.91,0,0,1,.06-.32l1.29-3.29-3.71-9a1.07,1.07,0,0,1-.08-.38.89.89,0,0,1,1.71-.35l3,7.54,3.1-7.5a.88.88,0,0,1,.83-.59.9.9,0,0,1,.89.9.93.93,0,0,1-.02.3Z" transform="translate(0.668 0.004)" fill="#fff"/>
  <path id="パス_8" data-name="パス 8" d="M111.08,10.19V22a1.3,1.3,0,0,1-1.3,1.29h-.24a1.32,1.32,0,0,1-1.05-.54l-7.63-11V22.37a.91.91,0,0,1-.91.89.89.89,0,0,1-.89-.89V10.59a1.29,1.29,0,0,1,1.28-1.3h.26a1.38,1.38,0,0,1,1.09.59l7.59,11V10.19a.9.9,0,0,1,.89-.9A.92.92,0,0,1,111.08,10.19Z" transform="translate(0.774 0.004)" fill="#fff"/>
  <path id="パス_9" data-name="パス 9" d="M124,18.13a5.05,5.05,0,1,1-10.1,0c0-3.12,2-5.23,5-5.23a4.86,4.86,0,0,1,5.1,5.23Zm-1.8,0a3.27,3.27,0,1,0-6.51,0c0,2.62,1.74,3.61,3.26,3.61a3.277,3.277,0,0,0,3.29-3.63Z" transform="translate(1 0.004)" fill="#fff"/>
  <path id="パス_10" data-name="パス 10" d="M140,13.88a1,1,0,0,1-.06.34l-2.8,8.21a1.25,1.25,0,0,1-1.15.83,1.29,1.29,0,0,1-1.16-.85l-2.09-6.53-2.09,6.53a1.29,1.29,0,0,1-1.17.85,1.25,1.25,0,0,1-1.14-.83l-2.8-8.21a1,1,0,0,1-.06-.34.88.88,0,0,1,.89-.88.8.8,0,0,1,.8.53l2.31,7.6,2.29-7.42a1,1,0,0,1,1.94,0L136,21.13l2.31-7.6a.82.82,0,0,1,.81-.53A.88.88,0,0,1,140,13.88Z" transform="translate(1 0.004)" fill="#fff"/>
</svg>
