<svg xmlns="http://www.w3.org/2000/svg" width="18.682" height="24.188" viewBox="0 0 18.682 24.188">
  <g id="グループ_687" data-name="グループ 687" transform="translate(-1147 -29)">
    <g id="グループ_564" data-name="グループ 564" transform="translate(190.799 204.188)">
      <path id="パス_566" data-name="パス 566" d="M969.124-175.188H956.2V-151h18.682v-17.649h-5.759Zm1.6,18.732H960.495v-1.967H970.72Zm0-4.228H960.495v-1.967H970.72Zm0-6.195v1.967H960.495v-1.967Z" fill="#fff"/>
      <path id="パス_567" data-name="パス 567" d="M1042.915-151.426c.592.675,1.151,1.314,1.629,1.867v-.024C1044.15-150.027,1043.568-150.686,1042.915-151.426Z" transform="translate(-69.661 -19.089)" fill="#fff"/>
      <path id="パス_568" data-name="パス 568" d="M1021.944-175.188h-.03c.734.827,1.618,1.824,2.514,2.838C1023.431-173.484,1022.483-174.566,1021.944-175.188Z" transform="translate(-52.79)" fill="#fff"/>
      <path id="パス_569" data-name="パス 569" d="M1034.7-160.758c.544.618,1.1,1.252,1.616,1.835C1035.79-159.518,1035.242-160.141,1034.7-160.758Z" transform="translate(-63.06 -11.592)" fill="#fde398"/>
      <path id="パス_570" data-name="パス 570" d="M1024.428-172.35c-.9-1.014-1.78-2.011-2.514-2.838v6.539h5.759c-.478-.552-1.037-1.192-1.629-1.867C1025.529-171.1,1024.971-171.732,1024.428-172.35Z" transform="translate(-52.79)" fill="#fde398"/>
    </g>
  </g>
</svg>
