<svg xmlns="http://www.w3.org/2000/svg" width="32.369" height="42.08" viewBox="0 0 32.369 42.08">
  <g id="グループ_552" data-name="グループ 552" transform="translate(0 0)">
    <g id="グループ_556" data-name="グループ 556">
      <g id="グループ_553" data-name="グループ 553">
        <g id="グループ_552-2" data-name="グループ 552">
          <path id="パス_547" data-name="パス 547" d="M367.488-173.173H342.661v42.08H375.03v-33.482C372.821-167.072,369.576-170.753,367.488-173.173Zm1.238,33.014H348.964v-2.053h19.762Zm0-4.79H348.964V-147h19.762Zm0-4.79H348.964v-2.053h19.762Zm0-4.79H348.964v-2.053h19.762Zm0-4.79H348.964v-2.053h19.762Z" transform="translate(-342.661 173.173)" fill="#fff"/>
        </g>
        <path id="パス_548" data-name="パス 548" d="M423-164.688c-2.069-2.389-5.284-6.021-7.473-8.485v8.485Z" transform="translate(-390.631 173.173)" fill="#fff"/>
      </g>
      <g id="グループ_555" data-name="グループ 555">
        <g id="グループ_554" data-name="グループ 554">
          <path id="パス_549" data-name="パス 549" d="M367.488-173.173H342.661v42.08H375.03v-33.482C372.821-167.072,369.576-170.753,367.488-173.173Zm1.238,33.014H348.964v-2.053h19.762Zm0-4.79H348.964V-147h19.762Zm0-4.79H348.964v-2.053h19.762Zm0-4.79H348.964v-2.053h19.762Zm0-4.79H348.964v-2.053h19.762Z" transform="translate(-342.661 173.173)" fill="#fff"/>
        </g>
        <path id="パス_550" data-name="パス 550" d="M423-164.688c-2.069-2.389-5.284-6.021-7.473-8.485v8.485Z" transform="translate(-390.631 173.173)" fill="#fde398"/>
      </g>
    </g>
  </g>
</svg>
