<svg id="グループ_552" data-name="グループ 552" xmlns="http://www.w3.org/2000/svg" width="34.945" height="45.429" viewBox="0 0 34.945 45.429">
  <g id="グループ_556" data-name="グループ 556">
    <g id="グループ_553" data-name="グループ 553">
      <g id="グループ_552-2" data-name="グループ 552">
        <path id="パス_547" data-name="パス 547" d="M369.464-173.173h-26.8v45.429h34.945v-36.147C375.222-166.587,371.719-170.56,369.464-173.173Zm1.337,35.641H349.466v-2.216H370.8Zm0-5.171H349.466v-2.216H370.8Zm0-5.171H349.466v-2.216H370.8Zm0-5.171H349.466v-2.216H370.8Zm0-5.171H349.466v-2.216H370.8Z" transform="translate(-342.661 173.173)" fill="#fff"/>
      </g>
      <path id="パス_548" data-name="パス 548" d="M423.595-164.012c-2.233-2.579-5.7-6.5-8.068-9.161v9.161Z" transform="translate(-388.65 173.173)" fill="#fff"/>
    </g>
    <g id="グループ_555" data-name="グループ 555">
      <g id="グループ_554" data-name="グループ 554">
        <path id="パス_549" data-name="パス 549" d="M369.464-173.173h-26.8v45.429h34.945v-36.147C375.222-166.587,371.719-170.56,369.464-173.173Zm1.337,35.641H349.466v-2.216H370.8Zm0-5.171H349.466v-2.216H370.8Zm0-5.171H349.466v-2.216H370.8Zm0-5.171H349.466v-2.216H370.8Zm0-5.171H349.466v-2.216H370.8Z" transform="translate(-342.661 173.173)" fill="#fd9233"/>
      </g>
      <path id="パス_550" data-name="パス 550" d="M423.595-164.012c-2.233-2.579-5.7-6.5-8.068-9.161v9.161Z" transform="translate(-388.65 173.173)" fill="#fcce64"/>
    </g>
  </g>
</svg>
